<svg width="81" height="26" viewBox="0 0 81 26" fill="none" xmlns="http://www.w3.org/2000/svg">
<path fill-rule="evenodd" clip-rule="evenodd" d="M36.2618 14.9373C36.4721 14.9707 36.6629 15.0651 36.7832 15.0086C37.1837 14.8203 37.6169 14.8142 38.0333 14.7317C38.5438 14.6303 39.0928 14.6576 39.5808 14.5384C40.2512 14.3746 40.937 14.2537 41.6066 14.1512C42.2968 14.0454 42.9694 13.8295 43.6761 13.7967C43.9922 13.7819 44.3003 13.6062 44.6147 13.5115C44.6484 13.5014 44.6989 13.5457 44.7532 13.5702C44.749 13.6346 44.7443 13.7031 44.7384 13.7905C44.3234 13.849 43.8841 13.8279 43.524 13.9866C43.2006 14.129 42.8449 13.9914 42.6043 14.1387C42.3149 14.3159 41.9843 14.1393 41.7678 14.3178C41.5133 14.5281 41.2186 14.298 40.9907 14.4682C40.7178 14.6721 40.3827 14.4668 40.1284 14.5849C39.7713 14.7509 39.3396 14.5849 39.0683 14.7607C38.7006 14.9988 38.255 14.6782 37.9578 15.0267C37.5553 14.937 37.191 15.135 36.8063 15.1788C36.3715 15.2283 35.9125 15.21 35.5103 15.3517C35.1672 15.4729 34.7922 15.3715 34.5182 15.5119C34.2639 15.6422 34.0073 15.5356 33.8152 15.6486C33.5558 15.801 33.2968 15.7542 33.0358 15.7929C32.8183 15.8252 32.5996 15.8681 32.3829 15.9197C31.9843 16.0146 31.5869 16.1637 31.161 16.0926C31.0624 16.0762 30.9034 16.0486 30.8669 16.0974C30.639 16.4012 30.2889 16.13 30.0332 16.301C29.7419 16.4957 29.4021 16.3575 29.0856 16.3923C28.9857 16.4035 28.8461 16.3514 28.789 16.4018C28.5743 16.5898 28.2913 16.4645 28.0949 16.5633C27.8242 16.6993 27.6153 16.5035 27.3766 16.5439C27.0198 16.6035 26.6605 16.6508 26.3011 16.6968C25.9945 16.736 25.6867 16.7656 25.3419 16.8037C25.3313 16.7948 25.2792 16.7505 25.2497 16.7255C25.0714 16.8171 24.9124 16.899 24.7923 16.9611C24.4756 16.8037 24.1993 16.7909 23.9247 16.9486C23.6217 17.1224 23.364 16.9252 23.1005 16.8436C22.7972 16.7497 22.5727 17.197 22.2078 16.9001C22.0248 16.7514 21.6496 16.838 21.3285 16.8163C21.8159 16.5361 22.3075 16.4831 22.7891 16.5575C23.2846 16.6347 23.7434 16.2737 24.2342 16.4854C24.5216 16.2731 24.7815 16.4283 25.0508 16.5611C25.1798 16.4466 25.3059 16.3344 25.4505 16.2057C25.6182 16.2717 25.7689 16.3313 25.9271 16.3937C26.1488 16.2386 26.3805 16.1297 26.6142 16.384C26.71 16.2884 26.7994 16.199 26.9042 16.094C27.4738 16.0659 28.0682 16.1578 28.6422 15.9447C28.8848 15.8548 29.1525 15.8113 29.4121 15.7918C29.8992 15.7556 30.3814 15.7453 30.8719 15.6673C31.3952 15.5843 31.9206 15.3757 32.4754 15.4723C32.5654 15.4882 32.6785 15.3701 32.7865 15.3105C32.8539 15.3676 32.9124 15.4581 32.9634 15.4542C33.3706 15.423 33.7773 15.3793 34.182 15.325C34.2435 15.3166 34.2953 15.2336 34.3522 15.1852C34.4034 15.232 34.4577 15.281 34.5399 15.3562C34.7304 15.2587 34.9332 15.1548 35.1365 15.0509C35.1535 15.0682 35.1691 15.0977 35.1897 15.1022C35.5192 15.169 35.8234 14.9323 36.1601 15.0186C36.2013 15.0292 36.2707 14.9297 36.2618 14.9373ZM68.7384 8.6211C68.764 8.51832 68.7813 8.4498 68.808 8.34312C68.869 8.38825 68.9167 8.4239 68.9701 8.46401C69.3475 8.25371 69.7264 8.02977 70.1166 7.82895C70.6402 7.55961 71.1758 7.32898 71.678 7.00059C72.1042 6.72206 72.6434 6.56218 73.0005 6.19869C73.3384 5.85582 73.881 5.89509 74.1397 5.47311C74.6553 5.40404 74.9093 4.91855 75.343 4.71272C75.4706 4.65227 75.5563 4.54198 75.7285 4.53223C75.902 4.52192 75.8998 4.48042 76.0939 4.11498C76.1471 4.10746 76.2167 4.09549 76.2869 4.08908C76.3368 4.08434 76.4234 4.10384 76.4329 4.08379C76.6618 3.5983 77.3022 3.72002 77.5754 3.30556C77.6013 3.26657 77.618 3.19137 77.6462 3.18747C78.4458 3.0819 78.926 2.38529 79.6343 2.11817C79.8995 2.0179 80.0067 1.74132 80.256 1.63325C80.3627 1.58673 80.4613 1.52044 80.5764 1.4561C80.6067 1.33717 80.6192 1.18815 80.6833 1.06615C80.7476 0.943598 80.8632 0.847504 81 0.689854C80.5925 0.509364 80.2112 0.651973 79.8653 0.467306C80.1449 0.454215 80.4245 0.441124 80.7243 0.426918C80.741 0.365084 80.7593 0.296843 80.7777 0.229438C79.8137 -0.0791773 79.8004 -0.111766 78.6695 0.351157C77.8696 0.678992 77.0078 0.893184 76.3223 1.46752C75.665 1.6157 75.1436 2.04436 74.5564 2.33599C73.7559 2.73373 72.9966 3.21281 72.2047 3.62811C71.2082 4.15119 70.1996 4.65172 69.1899 5.14946C68.2448 5.61544 67.2705 6.01013 66.2876 6.39395C65.6391 6.64713 64.9974 6.94489 64.3476 7.20894C63.6975 7.47299 63.0385 7.71531 62.3814 7.96265C61.8996 8.1437 61.4269 8.38351 60.9275 8.47599C60.3991 8.57375 60.0036 8.94671 59.4861 9.04141C59.1596 9.10129 58.8669 9.31771 58.5115 9.25504C58.4625 9.24613 58.3956 9.23304 58.3619 9.25672C57.8034 9.65363 57.118 9.6773 56.4971 9.88927C55.852 10.1093 55.1919 10.2865 54.5337 10.4656C54.1697 10.5647 53.7959 10.6154 53.443 10.7675C53.0266 10.9469 52.5589 10.9212 52.125 11.0669C51.5894 11.2466 51.0281 11.3688 50.4783 11.4803C49.941 11.5892 49.4057 11.7098 48.8753 11.8423C47.8411 12.1005 46.7743 12.2178 45.7622 12.5741C45.4945 12.6685 45.2059 12.6089 44.9129 12.7225C44.5179 12.876 43.9937 12.7381 43.6353 12.9309C43.2395 13.1434 42.7802 12.8643 42.4535 13.2035C41.6694 13.1813 40.9324 13.5077 40.1494 13.5152C39.9168 13.5172 39.6854 13.611 39.4528 13.6589C39.1957 13.7121 38.9389 13.7665 38.6802 13.8096C38.4451 13.8492 38.1729 13.7144 37.9841 13.9634C37.5864 13.9102 37.2131 14.0762 36.8307 14.0999C36.3408 14.1302 35.8784 14.3795 35.3759 14.2673C35.0985 14.5764 34.6448 14.2634 34.3526 14.5569C34.3016 14.6082 34.1593 14.5681 34.059 14.5714C33.7688 14.5809 33.4897 14.5611 33.2031 14.7082C32.9577 14.8341 32.6421 14.6483 32.3474 14.8536C32.1775 14.9717 31.8586 14.8747 31.6177 14.8747C31.5177 14.975 31.428 15.0644 31.3358 15.1569C30.9213 14.875 30.5785 15.0628 30.2439 15.3237C30.03 15.0672 29.6871 15.1073 29.4924 15.2148C29.2418 15.3527 29.0145 15.3218 28.7777 15.326C28.0864 15.3382 27.416 15.5644 26.713 15.4989C26.5322 15.4819 26.333 15.6647 26.1478 15.753C26.0551 15.7173 25.9506 15.661 25.8395 15.6376C25.5286 15.5719 25.2326 15.7323 24.8975 15.6594C24.6198 15.5989 24.2744 15.7106 23.9992 15.8348C23.8477 15.9031 23.7959 15.7995 23.7237 15.8059C23.3146 15.8429 22.8845 15.6393 22.4887 15.9276C22.3893 15.9997 22.1926 15.9385 22.0408 15.9385C20.9523 15.9385 19.8638 15.9351 18.7753 15.9412C18.5299 15.9424 18.2681 15.9293 18.0442 16.0084C17.8141 16.0897 17.6757 15.824 17.4551 15.9318C17.3125 16.0017 17.1392 16.0087 16.9529 16.0493C16.7869 16.0178 16.5785 15.9474 16.3691 15.9438C15.5594 15.9304 14.7458 15.8936 13.9397 15.9499C12.9364 16.0201 11.9582 15.8045 10.9655 15.7583C10.2502 15.7251 9.54693 15.4313 8.78236 15.2399C8.64198 15.2914 8.4289 15.3697 8.19939 15.4538C8.17236 15.4301 8.11862 15.3822 8.05316 15.324C7.915 15.4903 7.77741 15.656 7.61614 15.8502C8.04592 15.9599 8.40689 16.0518 8.82971 16.1599C8.72025 16.3134 8.652 16.4089 8.56983 16.5242L7.78687 16.5242C7.68883 16.6225 7.61725 16.6944 7.49052 16.8209C7.66488 16.9507 7.83897 17.0805 8.03979 17.2303C7.88883 17.2888 7.80192 17.3225 7.70666 17.3595C7.61447 17.7801 7.88994 18.0325 8.14145 18.2929C8.09355 18.3461 8.04647 18.3993 8.03449 18.4127C8.21749 18.5932 8.39408 18.7673 8.60494 18.9753C8.80576 18.9271 9.0556 18.6645 9.35475 18.8951C9.30712 18.9489 9.2592 19.0026 9.16896 19.104C9.5007 19.0505 9.78925 19.0037 10.0775 18.9572C10.0867 18.9954 10.0962 19.0344 10.1057 19.0728C9.96557 19.1065 9.82546 19.1402 9.64052 19.1845C9.82992 19.2828 9.98367 19.3628 10.1828 19.4661C10.2254 19.3775 10.2625 19.3015 10.3338 19.1544C10.455 19.1472 10.6413 19.136 10.8689 19.1227C10.8051 19.2736 10.7586 19.3836 10.6733 19.5847C10.8585 19.5847 10.9772 19.5931 11.0945 19.5834C11.942 19.5129 12.762 19.8009 13.6144 19.7482C14.472 19.6953 15.3363 19.7599 16.195 19.7176C16.3777 19.7087 16.4894 19.9928 16.7039 19.7847C16.7701 19.7204 17.0342 19.8613 17.1019 19.7967C17.3464 19.5639 17.4322 19.9179 17.6289 19.9034C17.9703 19.878 18.2673 19.7079 18.6285 19.7218C19.7154 19.7633 20.8053 19.7502 21.8935 19.7296C22.3035 19.7221 22.711 19.6151 23.1218 19.5903C23.5432 19.565 23.9672 19.5847 24.3886 19.5544C23.7686 19.3814 22.3068 19.4009 21.6456 19.4926C21.759 19.4586 21.872 19.4246 21.9854 19.3906C21.952 19.3541 21.9183 19.3176 21.8849 19.2809C22.3391 19.2809 22.7954 19.2558 23.2474 19.2867C23.8959 19.3313 24.5095 19.0168 25.1596 19.1291C25.3871 18.9269 25.7166 19.0722 25.9203 18.9564C26.2447 18.772 26.5172 19.1165 26.8494 18.9196C27.1004 18.7709 27.4728 18.8271 27.8591 18.7848C27.8892 18.7603 27.9778 18.6881 28.0664 18.616C28.0505 18.5826 28.0346 18.5492 28.019 18.5157C27.2862 18.5929 26.5534 18.67 25.7838 18.7514C25.7618 18.7322 25.6868 18.667 25.6119 18.6018C25.693 18.5207 25.7646 18.4492 25.8361 18.3779C25.9099 18.4327 25.9838 18.4876 26.1434 18.6065C26.1865 18.4319 26.2266 18.2695 26.2668 18.1071L26.4236 18.24C26.4926 18.2742 26.562 18.3088 26.6492 18.352C26.6651 18.2754 26.6793 18.206 26.6999 18.1063C27.0029 18.0322 27.3255 17.9537 27.6516 17.874C27.7171 18.0127 27.7661 18.1166 27.8218 18.2347C28.087 18.138 28.346 18.0439 28.5961 17.9528C28.6705 17.9968 28.751 18.045 28.8632 18.1116C29.0162 17.918 29.1551 17.7417 29.2944 17.5654C29.3777 17.6484 29.4136 17.6843 29.466 17.7367C29.5952 17.6734 29.7311 17.6072 29.8754 17.5367C29.7991 17.4626 29.7267 17.3924 29.6476 17.3158C29.5983 17.3587 29.5459 17.4044 29.4657 17.4743C29.3362 17.4152 29.19 17.3481 29.0265 17.2735C28.9847 17.393 28.954 17.4813 28.9212 17.5751C28.7084 17.503 28.4975 17.4314 28.2638 17.352C27.968 17.5885 27.5834 17.3921 27.1998 17.4774C27.1185 17.5545 27.0113 17.6562 26.9038 17.7576C26.6929 17.4818 26.3843 17.6779 26.0935 17.5787C26.0893 17.5113 26.084 17.425 26.0748 17.2712C26.1826 17.3554 26.2325 17.3938 26.323 17.4645C26.3971 17.3542 26.4782 17.2339 26.5639 17.1064C26.6923 17.2426 26.7784 17.3339 26.8773 17.4389C27.0377 17.3568 27.1962 17.2754 27.3631 17.1896C27.5845 17.4077 27.8017 17.2835 28.0496 17.1626C28.2583 17.0607 28.5042 17.0353 28.7493 16.9724C28.7995 16.8841 28.8618 16.7746 28.9864 16.5557C29.0772 16.7757 29.1181 16.8749 29.1797 17.0242C29.4014 16.9919 29.6376 16.9576 29.8738 16.9225C30.1122 16.8871 30.3949 16.9186 30.5782 16.7989C30.8241 16.6376 30.977 17.0105 31.2277 16.8133C31.3957 16.681 31.6853 16.7033 31.9185 16.6568C32.0252 16.8125 32.1048 16.9292 32.2541 17.1481C31.972 17.1228 31.8007 17.1072 31.5411 17.0835C31.5555 17.0701 31.4873 17.1334 31.4001 17.2139C31.4388 17.2637 31.477 17.3125 31.5266 17.3768C31.4904 17.4211 31.4483 17.4723 31.4074 17.5222C31.4338 17.5492 31.4647 17.6072 31.4918 17.6052C31.7132 17.5893 31.9335 17.5484 32.155 17.5428C32.3928 17.5372 32.6883 17.6545 32.8566 17.5512C33.112 17.3944 33.3479 17.5166 33.6028 17.4409C33.6916 17.3565 33.8 17.2531 33.9406 17.1194C34.0526 17.1999 34.1676 17.2827 34.3417 17.4077C33.5744 17.7762 32.7794 17.8099 31.9015 17.9899C32.3084 18.1116 32.6271 18.0879 32.9229 18.0492C33.0989 18.0264 33.2593 17.8904 33.4702 17.9063C33.6376 17.9191 33.8749 17.7865 33.9671 17.8606C34.2019 18.0492 34.266 17.7567 34.42 17.7604C34.6222 17.7651 34.8275 17.781 35.0266 17.7565C35.2617 17.7278 35.4898 17.6475 35.7244 17.6133C35.9377 17.5821 36.1405 17.5506 36.353 17.4854C36.6928 17.3815 37.0878 17.4579 37.4621 17.576C37.2095 17.5969 36.9571 17.618 36.5925 17.6487C37.2964 17.9562 37.8546 17.5414 38.4295 17.6094C38.5417 17.4565 38.632 17.2807 38.7718 17.164C38.8423 17.1052 39.0021 17.154 39.2812 17.154C39.0328 17.2757 38.9375 17.3222 38.8409 17.3696C38.8762 17.4008 38.9111 17.4562 38.9406 17.4534C39.2517 17.4258 39.5609 17.5136 39.8753 17.3225C40.1071 17.1816 40.4243 17.3381 40.7316 17.1938C41.0867 17.027 41.5387 17.0788 41.9404 16.9958C42.3354 16.9139 42.7339 16.8562 43.1264 16.7493C43.7004 16.593 44.3021 16.5387 44.8773 16.3858C45.451 16.2334 46.0691 16.2933 46.6122 15.9922C46.8858 15.8404 47.2105 15.9287 47.5228 15.8114C48.1829 15.5641 48.8971 15.4627 49.5853 15.287C49.9527 15.1934 50.2997 15.0352 50.6919 15.021C51.1613 15.0037 51.4685 14.7959 51.6646 14.414C51.7183 14.5241 51.764 14.6182 51.8136 14.7199C51.8698 14.6697 51.9225 14.6229 51.9754 14.5759C52.0267 14.6218 52.0801 14.6697 52.0785 14.6681C52.3587 14.5773 52.6046 14.4291 52.8461 14.4361C53.1762 14.4452 53.3723 14.2216 53.7995 14.1363C54.47 14.2751 55.1409 13.647 55.9712 13.6433C55.9913 13.5083 56.0125 13.3687 56.0531 13.0969C56.1726 13.3052 56.2439 13.4297 56.2634 13.4637C56.9447 13.3601 57.4706 13.1116 57.9792 12.815L57.9792 12.6047C58.0928 12.661 58.1767 12.7261 58.2694 12.7426C58.3923 12.7643 58.5215 12.7481 58.6702 12.7481C58.7424 12.6649 58.8248 12.5702 58.919 12.4615L59.5877 12.4615C59.6267 12.3518 59.6579 12.2635 59.6969 12.1535C59.7724 12.2014 59.8437 12.2468 59.9598 12.3206C60.1083 12.1869 60.2674 12.0434 60.3946 11.9287C60.4125 11.7616 60.425 11.6451 60.4476 11.436C60.6088 11.6777 60.7133 11.834 60.8236 11.9994C61.2776 11.8203 61.6904 11.5543 62.1981 11.4633C62.646 11.383 63.0145 11.0315 63.4811 10.8984C63.7384 10.8249 63.9468 10.553 64.2741 10.621C64.4309 10.3678 64.7097 10.3447 64.954 10.2455C65.2595 10.1218 65.6612 10.1987 65.8748 9.92018C66.0904 9.6397 66.5291 9.79986 66.6731 9.44556C66.9867 9.41019 67.239 9.1907 67.522 9.1233C67.8482 9.04587 68.0994 8.913 68.342 8.7016C68.42 8.63363 68.5727 8.65146 68.7384 8.6211Z" fill="#229A87"/>
<path fill-rule="evenodd" clip-rule="evenodd" d="M1.04872 14.0605C1.07853 14.1282 1.17156 14.2393 1.14593 14.2961C0.87269 14.8928 1.03925 15.4827 1.15707 16.0712C1.254 16.5559 1.32893 17.0636 1.61749 17.472C2.15227 18.2282 2.48261 19.1599 3.38534 19.6133C3.41125 20.0949 4.10563 20.0222 4.12763 20.5074C4.63011 20.7511 4.93427 21.228 5.3621 21.5592C5.63088 21.7672 5.89215 21.9823 6.14533 22.2093C6.24254 22.2965 6.40493 22.3109 6.58235 22.375C6.63778 22.4884 6.72023 22.656 6.82356 22.8674C7.01352 22.9881 7.25 23.1382 7.52157 23.3109C7.52881 23.4396 7.53828 23.6097 7.54803 23.7913C7.63549 23.8231 7.72323 23.8551 7.81096 23.8872C7.95608 24.1805 7.64663 24.1014 7.55416 24.2C7.73604 24.596 8.05997 24.8473 8.44129 25.0698C8.68445 24.884 8.93123 24.696 9.20168 24.4891L9.20168 23.4721C9.30613 23.3624 9.40947 23.2541 9.51782 23.1401C9.45487 22.6594 9.60556 22.1664 9.37354 21.6815C9.26185 21.4486 9.22926 21.1726 9.01674 20.9974C8.88109 20.8857 8.93318 20.6191 8.65464 20.6052C8.59336 20.6021 8.55019 20.3161 8.4917 20.1629C8.37555 19.8584 8.10983 19.6654 7.90288 19.4376C7.41071 18.8944 6.90991 18.3477 6.34476 17.8853C5.7838 17.4271 5.28439 16.8862 4.63067 16.5394C4.43959 16.4381 4.29726 16.2464 4.12708 16.103C3.96219 15.9643 3.78977 15.8342 3.57447 15.6637C3.84297 15.5479 4.11287 15.4317 4.42204 15.2983C4.4602 15.4008 4.49056 15.4835 4.5226 15.5701C5.18411 15.5086 5.76318 15.1223 6.4481 14.9916L6.4481 14.6527C6.96561 14.4914 7.45667 14.3385 7.94772 14.1856C8.15105 14.1187 8.33962 14.4229 8.60228 14.1895C8.49644 14.1399 8.39533 14.0925 8.29422 14.0455C8.65771 14.1123 8.96966 13.4928 9.35683 14.0321C9.83646 13.4706 10.7097 13.7363 11.113 13.07C11.1525 13.1057 11.2055 13.1536 11.2776 13.219C11.6578 13.0748 12.0411 12.8764 12.4483 12.7898C12.8711 12.6993 13.0048 12.255 13.5156 12.1439C14.0186 12.2222 14.5896 12.079 15.074 11.6751C15.1456 11.4579 15.2113 11.2576 15.2818 11.044C15.2436 10.9799 15.1985 10.9039 15.1537 10.8278C15.2428 10.7381 15.3325 10.6487 15.4336 10.5476C15.2292 10.4448 15.0289 10.3443 14.8267 10.2426C14.9216 10.1479 15.0111 10.0585 15.1233 9.94627C14.9902 9.86828 14.862 9.79336 14.6949 9.69531C14.388 10.0677 13.9075 9.79475 13.485 9.98471C12.8911 10.2518 12.2009 10.2964 11.5628 10.4752C10.8175 10.6838 10.0844 10.937 9.34457 11.166C8.55743 11.4094 7.77225 11.6559 6.9684 11.8487C6.30911 12.0063 5.69271 12.3249 5.0195 12.4536C4.79249 12.7319 4.38194 12.4706 4.15465 12.7486C3.5831 12.6898 3.11377 13.0982 2.55308 13.1021C2.44139 13.1029 2.33193 13.1814 2.21773 13.2021C1.70634 13.2945 1.22643 13.4274 1.04872 14.0605Z" fill="#229A87"/>
</svg>
