<svg width="160" height="39" viewBox="0 0 160 39" fill="none" xmlns="http://www.w3.org/2000/svg">
<path d="M24.8182 12.6282C25.4612 6.23501 21.3897 1.93298 15.2339 0.824655C8.73765 -0.345172 -0.660051 4.21038 0.883347 13.6963C1.77629 19.1839 5.01283 19.867 8.70619 24.5673C11.0401 27.5389 11.9391 31.7459 16.1686 31.2969C21.2668 30.7566 20.5391 26.4719 22.2123 21.797C23.5498 18.0597 24.5058 15.735 24.8182 12.6282Z" fill="#F9ED35"/>
<path d="M21.8497 23.6308C18.8671 22.4629 11.925 22.6561 9.19141 25.6292L12.1215 29.8952L13.6555 30.9561L15.1828 31.3193L16.9372 31.092L19.3844 30.0865L20.1478 29.2095L21.2579 26.3637L21.8497 23.6308Z" fill="#E88128"/>
<path d="M11.5462 20.0302C7.51584 19.7188 4.50596 16.2634 4.82381 12.3125" stroke="#FDF5A3" stroke-width="1.98589" stroke-miterlimit="10"/>
<path d="M10.7992 28.0767C10.3972 28.2292 10.198 28.6729 10.3538 29.0665C10.5099 29.4602 10.9615 29.6558 11.3636 29.503L11.8386 29.3223C12.2403 29.1696 12.4396 28.7261 12.2835 28.3324C12.1278 27.9385 11.6756 27.7433 11.2741 27.8954L10.7992 28.0767Z" fill="#344A48"/>
<path d="M9.40635 38.2456C9.40101 38.4868 9.61747 38.6863 9.88967 38.6917L11.03 38.7155C11.302 38.7211 11.5269 38.5309 11.532 38.2896C11.5372 38.0494 11.3207 37.8497 11.0489 37.8439L9.90861 37.8204C9.6365 37.8148 9.41149 38.0053 9.40635 38.2456Z" fill="#344A48"/>
<path d="M20.7444 38.1172C20.702 38.3555 20.8856 38.5793 21.1546 38.6165L22.2811 38.776C22.5499 38.8138 22.8027 38.6518 22.8455 38.4137C22.8874 38.176 22.7038 37.9528 22.435 37.9147L21.3085 37.7556C21.0397 37.7172 20.787 37.8796 20.7444 38.1172Z" fill="#344A48"/>
<path d="M17.4221 15.6101C17.4737 15.9659 17.8096 16.2136 18.173 16.1633C18.5358 16.113 18.7885 15.7833 18.7373 15.4275L18.478 13.634C18.4266 13.2782 18.0905 13.0302 17.7274 13.0808C17.3642 13.131 17.1114 13.4606 17.1629 13.8166L17.4221 15.6101Z" fill="#344A48"/>
<path d="M24.4712 12.5974C24.4712 12.5974 24.4773 12.5146 24.4886 12.354C24.4987 12.1955 24.5105 11.9694 24.5139 11.6644C24.5183 11.3617 24.5078 10.9881 24.4668 10.553C24.4281 10.1179 24.3497 9.62141 24.2173 9.07886C24.082 8.53727 23.8888 7.9494 23.607 7.34354C23.3247 6.73845 22.9536 6.11631 22.479 5.51083C22.0068 4.90393 21.4262 4.31673 20.7391 3.78427C20.052 3.25219 19.2542 2.78199 18.3694 2.39672C17.4848 2.01096 16.5125 1.71194 15.4805 1.51125C15.4162 1.49802 15.3514 1.48612 15.2863 1.4747L15.0989 1.44147C14.9641 1.42081 14.8199 1.39587 14.6993 1.38264C14.4506 1.34817 14.1787 1.32523 13.9144 1.3079C13.3806 1.27858 12.8346 1.28049 12.2828 1.32418C10.0792 1.49259 7.76841 2.2303 5.79374 3.57406C4.81136 4.24809 3.91851 5.07776 3.21125 6.05309C2.50359 7.02681 1.98036 8.14047 1.6999 9.32819C1.55646 9.9212 1.47702 10.5322 1.44527 11.1489C1.41604 11.7661 1.44459 12.3901 1.51762 13.0126C1.53296 13.1684 1.55947 13.3237 1.58171 13.4791L1.59696 13.5842L1.61852 13.7066L1.66144 13.9516L1.683 14.074L1.70718 14.1859L1.75506 14.41C1.78409 14.559 1.831 14.7118 1.86518 14.8634C1.90189 15.0153 1.94841 15.1632 1.98929 15.3138C2.03697 15.4612 2.08397 15.6093 2.13554 15.7554C2.24197 16.0458 2.35181 16.3355 2.48835 16.6129C2.74948 17.174 3.0883 17.6983 3.46879 18.2049C3.85413 18.7094 4.28948 19.1892 4.74513 19.6653C5.1998 20.1419 5.66983 20.616 6.13917 21.0946C6.60948 21.5721 7.06629 22.0648 7.51641 22.5602C7.62944 22.6834 7.73889 22.81 7.84863 22.9358C7.9604 23.06 8.06849 23.1871 8.17647 23.314C8.28563 23.4399 8.39158 23.5683 8.49636 23.6972C8.60202 23.8257 8.70787 23.9534 8.80993 24.084L8.96454 24.2785L9.04242 24.3779L9.11671 24.4749C9.21907 24.6117 9.31783 24.7464 9.41251 24.8829C9.60334 25.1554 9.7828 25.4322 9.95614 25.7094C10.6486 26.8172 11.2329 27.9469 11.9545 28.9247C12.3155 29.4107 12.712 29.8579 13.1721 30.2026C13.6296 30.5496 14.1477 30.7889 14.6963 30.9003C14.97 30.9574 15.2507 30.9837 15.5323 30.9853C15.673 30.9871 15.8142 30.9803 15.9551 30.9711C16.0245 30.9644 16.0988 30.9592 16.1635 30.9514L16.3847 30.9244C16.9424 30.849 17.493 30.71 17.9793 30.4878C18.4684 30.2668 18.8917 29.9526 19.2309 29.5682C19.57 29.1828 19.827 28.7323 20.0302 28.2607C20.2332 27.7879 20.3872 27.2957 20.5211 26.8038C20.6547 26.3114 20.7687 25.8187 20.8806 25.3334C21.103 24.3621 21.3219 23.42 21.5935 22.5358C21.7266 22.0942 21.8805 21.6629 22.026 21.2612C22.1722 20.8553 22.3142 20.4612 22.4518 20.0791C23.0032 18.553 23.4681 17.2262 23.7862 16.1216C23.8689 15.846 23.9365 15.5833 24.0026 15.3362C24.0625 15.0883 24.1201 14.8557 24.1644 14.6379C24.2585 14.2032 24.3223 13.8305 24.362 13.5266C24.3823 13.3748 24.4002 13.2408 24.4155 13.125C24.4278 13.0088 24.4382 12.9111 24.4466 12.8324C24.4633 12.6751 24.4719 12.5938 24.4719 12.5938L24.4712 12.5974ZM25.1668 12.6639C25.1648 12.6792 25.1547 12.7612 25.1367 12.9072C25.1266 12.9885 25.1141 13.0893 25.0993 13.2092C25.0812 13.3285 25.0604 13.467 25.0368 13.6237C25.0149 13.7805 24.9817 13.9544 24.9473 14.1459C24.9171 14.3383 24.8744 14.5464 24.8297 14.7717C24.7363 15.2211 24.6199 15.7361 24.4641 16.3046C24.3094 16.8734 24.1183 17.4966 23.8926 18.166C23.6646 18.8348 23.4063 19.5515 23.1296 20.3148C22.9914 20.6961 22.8487 21.0897 22.702 21.4949C22.5531 21.9037 22.4081 22.3077 22.2776 22.7373C22.013 23.5928 21.7965 24.5143 21.572 25.4872C21.4587 25.9735 21.3424 26.4731 21.2032 26.9827C21.0634 27.4918 20.9008 28.0121 20.6776 28.53C20.4537 29.0461 20.1621 29.5624 19.7598 30.018C19.3584 30.4732 18.8436 30.851 18.2744 31.1084C17.7033 31.3682 17.0973 31.5198 16.4721 31.6049C15.8669 31.6908 15.199 31.7083 14.5517 31.5726C13.9013 31.4421 13.2734 31.1505 12.7443 30.7483C12.2126 30.3463 11.7681 29.8562 11.3781 29.3395C10.5992 28.3017 10.0024 27.1673 9.31696 26.0966C9.14604 25.8288 8.97085 25.5643 8.78702 25.3069C8.69554 25.1776 8.60066 25.0511 8.50685 24.928L8.43178 24.8317L8.35788 24.7393L8.2058 24.5521C8.10519 24.4267 8.00255 24.3025 7.89621 24.1811C7.79143 24.0584 7.68567 23.9364 7.57671 23.8166C7.36239 23.5742 7.14019 23.3376 6.9113 23.1058C6.0001 22.1725 4.98907 21.3288 3.97746 20.4224C3.47335 19.9679 2.97886 19.4813 2.51564 18.9506C2.0563 18.4168 1.63629 17.8312 1.2964 17.2002L1.16947 16.9634L1.05245 16.7221C0.971364 16.562 0.90659 16.3963 0.835213 16.2324C0.769468 16.0671 0.709162 15.8999 0.648468 15.7329C0.595153 15.5645 0.536206 15.3969 0.488233 15.2274L0.419284 14.9726C0.396268 14.8879 0.374127 14.8025 0.355578 14.7142L0.296923 14.4519L0.267886 14.3207L0.245065 14.1984L0.19952 13.9538L0.176795 13.8317L0.169512 13.7878L0.164657 13.7555L0.155237 13.6908C0.131153 13.5183 0.103185 13.3466 0.0865786 13.1729C0.00820937 12.4805 -0.0207297 11.7803 0.0153958 11.0817C0.0540463 10.3836 0.148148 9.68691 0.315471 9.00737C0.642835 7.64638 1.25357 6.36069 2.06912 5.25074C2.88427 4.13784 3.90006 3.20535 5.00141 2.45688C6.10469 1.70784 7.29752 1.1413 8.51277 0.74184C9.72958 0.3459 10.9682 0.105994 12.1888 0.0292619C12.7989 -0.0121504 13.4048 -0.00796172 14.0003 0.0314514C14.3003 0.0548708 14.5881 0.0812413 14.8906 0.127033C15.0464 0.147977 15.175 0.17292 15.3129 0.196244L15.4266 0.217855L15.5319 0.238608C15.6021 0.252317 15.6719 0.266217 15.7415 0.281639C16.8557 0.517452 17.9114 0.86027 18.8774 1.30057C19.8435 1.74021 20.72 2.27581 21.4772 2.88243C22.2357 3.48734 22.8732 4.1626 23.3791 4.86051C23.6302 5.21085 23.8536 5.56329 24.0437 5.91648C24.2324 6.27025 24.3929 6.62125 24.5283 6.96483C24.7997 7.65199 24.9697 8.30745 25.0783 8.90303C25.1858 9.49946 25.2301 10.0367 25.2513 10.5026C25.2715 10.9687 25.2612 11.3645 25.2471 11.6842C25.2322 12.0019 25.21 12.2524 25.1937 12.4147C25.1764 12.5748 25.1674 12.6574 25.1674 12.6574L25.1668 12.6639Z" fill="#344A48"/>
<path d="M21.8527 23.6226C18.9111 22.5372 12.3351 22.8464 9.40625 25.386" stroke="#344A48" stroke-width="0.45469" stroke-miterlimit="10"/>
<path d="M21.3894 25.6258C18.7226 24.6915 12.967 24.4965 10.4062 27.4301" stroke="#344A48" stroke-width="0.45469" stroke-miterlimit="10"/>
<path d="M20.7355 27.9269C17.6308 26.7056 13.7143 27.0805 11.6406 29.2787" stroke="#344A48" stroke-width="0.45469" stroke-miterlimit="10"/>
<path d="M19.5199 29.8887C16.756 28.8911 14.6285 29.3036 13.3672 30.7964" stroke="#344A48" stroke-width="0.45469" stroke-miterlimit="10"/>
<path d="M8.87327 25.1936C8.87327 25.1936 8.83015 25.1925 8.74936 25.1905C8.73081 25.1906 8.70284 25.1882 8.68546 25.1901C8.66778 25.1917 8.64846 25.1933 8.62758 25.1952C8.60621 25.1973 8.58553 25.197 8.55931 25.2006C8.53231 25.205 8.50357 25.2096 8.47327 25.2145C8.35266 25.2365 8.20582 25.2728 8.04539 25.3481C7.88477 25.4213 7.70948 25.5275 7.53352 25.6707C7.35745 25.8134 7.18071 25.9928 7.01708 26.2041C6.85344 26.4152 6.69865 26.655 6.56929 26.918C6.43955 27.1804 6.33098 27.4645 6.26339 27.7552C6.23057 27.9003 6.20678 28.0468 6.19755 28.1893C6.18988 28.3308 6.19755 28.4689 6.22464 28.586L6.22668 28.5972L6.22785 28.6028L6.22834 28.6056C6.23465 28.628 6.22037 28.5782 6.22231 28.5847L6.23212 28.6149L6.25174 28.6754C6.25543 28.689 6.25718 28.6867 6.25912 28.69C6.26116 28.6924 6.26281 28.6949 6.26436 28.6974C6.26864 28.7033 6.26669 28.706 6.27398 28.7155C6.29874 28.7521 6.32331 28.7894 6.36284 28.8222C6.43606 28.8901 6.54278 28.9506 6.66718 28.9959C6.91851 29.0862 7.21975 29.1254 7.51477 29.1318C7.81077 29.14 8.10531 29.1191 8.38402 29.0855C8.66302 29.0518 8.92717 29.0047 9.16956 28.953C9.65483 28.8497 10.0531 28.7275 10.329 28.6373C10.4666 28.5906 10.5746 28.5537 10.6475 28.5264C10.7207 28.4999 10.7597 28.4856 10.7597 28.4856L11.0597 29.2718C11.0597 29.2718 11.0176 29.2865 10.9388 29.314C10.8602 29.3423 10.7438 29.3806 10.5955 29.4289C10.298 29.5223 9.86974 29.6482 9.34184 29.754C9.07798 29.807 8.78927 29.8551 8.47919 29.8887C8.16921 29.9223 7.83787 29.9425 7.4871 29.9288C7.31181 29.9223 7.13186 29.9076 6.94667 29.8767C6.76187 29.8461 6.57192 29.8024 6.37886 29.7289C6.18706 29.6553 5.98798 29.5503 5.8125 29.3847C5.72394 29.3047 5.64722 29.2032 5.58332 29.0954C5.55195 29.0401 5.51651 28.9585 5.49718 28.9058L5.47834 28.8451L5.46892 28.8148C5.46999 28.8189 5.45542 28.7665 5.46115 28.7863L5.46008 28.7812L5.45805 28.7713L5.45406 28.7514C5.36618 28.3231 5.42386 27.9398 5.50767 27.5815C5.59585 27.2236 5.72831 26.8922 5.88437 26.5859C6.04013 26.2795 6.22445 26.0007 6.42266 25.7514C6.62096 25.5022 6.8382 25.2855 7.06321 25.1075C7.28763 24.9292 7.52012 24.7906 7.74202 24.693C7.96304 24.5932 8.17543 24.5409 8.351 24.5118C8.39538 24.5054 8.43734 24.4994 8.47676 24.4938C8.51697 24.4888 8.5596 24.4879 8.5966 24.4855C8.63418 24.4838 8.66904 24.4823 8.7009 24.4808C8.73314 24.4796 8.75043 24.482 8.77218 24.4823C8.85298 24.4853 8.89609 24.487 8.89609 24.487L8.87327 25.1936Z" fill="#344A48"/>
<path d="M22.0188 22.5942C22.0188 22.5942 22.0282 22.603 22.0459 22.6201C22.0549 22.6288 22.066 22.6393 22.0791 22.652C22.0914 22.6632 22.1105 22.6835 22.1203 22.6893C22.1604 22.7223 22.2508 22.7926 22.3747 22.8552C22.5 22.9185 22.6666 22.9818 22.8772 23.0207C23.0873 23.0599 23.3382 23.0784 23.6187 23.0638C23.8989 23.0512 24.2077 23.006 24.5317 22.9323C24.856 22.8586 25.1952 22.7541 25.5398 22.6246C26.2288 22.3637 26.9369 21.9988 27.5984 21.5654C28.261 21.1328 28.877 20.6322 29.4018 20.1155C29.9272 19.599 30.3599 19.0663 30.6856 18.585C31.0131 18.1041 31.2338 17.6756 31.3721 17.3711C31.4412 17.2187 31.4921 17.0977 31.5238 17.0143C31.5564 16.9311 31.5738 16.8867 31.5738 16.8867L32.4918 17.2223C32.4918 17.2223 32.4716 17.2722 32.4336 17.366C32.3964 17.4598 32.3374 17.5958 32.2575 17.7662C32.0977 18.1067 31.8449 18.5823 31.4773 19.1083C31.1115 19.6349 30.6316 20.2103 30.0559 20.7626C29.4807 21.3153 28.8117 21.8453 28.093 22.3025C27.3749 22.7605 26.6075 23.1455 25.8477 23.4231C25.4673 23.5611 25.0893 23.6728 24.7207 23.752C24.3522 23.8313 23.9938 23.8803 23.6547 23.8917C23.3162 23.9052 22.9968 23.8802 22.713 23.8234C22.429 23.7674 22.1818 23.6738 21.9879 23.572C21.7923 23.4684 21.6575 23.3656 21.553 23.2726C21.5247 23.2489 21.5155 23.2377 21.5009 23.2239C21.4878 23.211 21.4769 23.2002 21.4681 23.1916C21.4504 23.1742 21.4414 23.1652 21.4414 23.1652L22.0188 22.5942Z" fill="#344A48"/>
<path d="M13.0594 30.5349C13.0594 30.5349 13.0415 30.5619 13.0082 30.6128C12.9914 30.6383 12.9708 30.6696 12.9466 30.7064C12.9229 30.7429 12.9103 30.7729 12.8877 30.8127C12.8466 30.882 12.7915 31.0011 12.7334 31.1281C12.7057 31.1946 12.6764 31.2655 12.6454 31.3403C12.6171 31.4175 12.5871 31.4986 12.556 31.5834C12.5274 31.6703 12.4977 31.7607 12.467 31.8545C12.439 31.95 12.4099 32.0487 12.38 32.1502C12.3239 32.3554 12.268 32.5738 12.2161 32.8027C12.1644 33.0315 12.1144 33.2697 12.0691 33.5138C12.0225 33.7575 11.9804 34.0069 11.9413 34.2572C11.7831 35.258 11.6814 36.2738 11.6198 37.0354C11.589 37.4163 11.5686 37.734 11.5558 37.9556C11.5446 38.1747 11.538 38.2998 11.538 38.2998L10.2773 38.2347C10.2773 38.2347 10.2876 38.1021 10.3056 37.8704C10.3247 37.6414 10.3543 37.3155 10.396 36.9252C10.4794 36.1446 10.6104 35.1064 10.8017 34.0703C10.8491 33.8112 10.8999 33.5524 10.9553 33.2976C11.0095 33.043 11.0687 32.7924 11.1301 32.5502C11.1917 32.3079 11.2578 32.0739 11.3249 31.8522C11.3605 31.7414 11.3954 31.6336 11.4289 31.5294C11.4662 31.4251 11.502 31.3246 11.5365 31.228C11.575 31.1314 11.6117 31.039 11.6467 30.951C11.6858 30.8632 11.7229 30.7799 11.7578 30.7015C11.8351 30.5436 11.8982 30.4136 11.9751 30.2886C12.0099 30.2306 12.0441 30.1705 12.0695 30.1336C12.0948 30.0975 12.1162 30.0666 12.1335 30.0416C12.1683 29.9916 12.1869 29.9648 12.1869 29.9648L13.0594 30.5349Z" fill="#344A48"/>
<path d="M19.3718 30.1211C19.3718 30.1211 19.4388 30.23 19.5563 30.4206C19.5858 30.4682 19.6182 30.521 19.6536 30.5783C19.6892 30.635 19.7275 30.6969 19.766 30.7728C19.844 30.92 19.9319 31.086 20.0278 31.267C20.1183 31.4478 20.2033 31.6424 20.3001 31.8493C20.3965 32.0557 20.4784 32.2787 20.5738 32.5067C20.6668 32.7354 20.7464 32.9758 20.8362 33.2181C20.9198 33.4618 20.998 33.7108 21.0782 33.9596C21.1498 34.21 21.2276 34.4594 21.2929 34.7071C21.3579 34.9548 21.4251 35.1981 21.4796 35.4355C21.508 35.5539 21.5359 35.6705 21.5632 35.7846C21.5883 35.899 21.6129 36.0111 21.6368 36.1201C21.6863 36.3379 21.7247 36.5455 21.7639 36.7365C21.8373 37.1196 21.8927 37.44 21.9274 37.6668C21.9445 37.781 21.9579 37.8706 21.967 37.9317C21.9759 37.9959 21.9805 38.0302 21.9805 38.0302L20.7253 38.1622C20.7253 38.1622 20.7224 38.1333 20.7168 38.0791C20.7103 38.022 20.7008 37.9382 20.6886 37.8316C20.6633 37.617 20.6212 37.3087 20.5638 36.9393C20.5326 36.755 20.5028 36.5545 20.4626 36.344C20.4433 36.2385 20.4235 36.1302 20.4033 36.0195C20.3809 35.9092 20.358 35.7965 20.3348 35.682C20.2905 35.4522 20.2343 35.2177 20.1804 34.9781C20.1262 34.7388 20.0604 34.4991 20.0004 34.2573C19.9323 34.0185 19.8662 33.7787 19.7951 33.5451C19.7183 33.314 19.6508 33.0825 19.5709 32.8653C19.4889 32.6492 19.4191 32.435 19.3363 32.241C19.2535 32.0477 19.1792 31.8591 19.1039 31.6949C19.0263 31.5343 18.9552 31.3872 18.8922 31.2567C18.8634 31.1921 18.8272 31.1287 18.793 31.0699C18.7596 31.0113 18.7291 30.9574 18.7015 30.9089C18.5907 30.7146 18.5273 30.6035 18.5273 30.6035L19.3718 30.1211Z" fill="#344A48"/>
<path d="M11.4035 17.616C10.9974 18.2785 11.0346 19.7355 12.0175 20.3246C13.5384 21.3344 15.4594 21.3546 16.9791 20.3275C17.9972 19.6344 18.0374 18.0787 17.6244 17.5229C17.2113 16.9674 16.4754 17.0273 15.9389 17.2721C15.1375 17.6372 13.9418 17.6674 13.0896 17.2452C12.5188 16.9617 11.81 16.9538 11.4035 17.616Z" fill="white" stroke="#344A48" stroke-width="0.45469" stroke-miterlimit="10"/>
<path d="M15.7969 17.3281L16.4514 20.6255" stroke="#344A48" stroke-width="0.45469" stroke-miterlimit="10"/>
<path d="M14.518 17.7266L14.4922 20.9121" stroke="#344A48" stroke-width="0.45469" stroke-miterlimit="10"/>
<path d="M13.2069 17.2969L12.4883 20.6309" stroke="#344A48" stroke-width="0.45469" stroke-miterlimit="10"/>
<path d="M16.2218 9.43864C16.1106 8.763 16.5078 8.13848 17.1083 8.04337C17.7092 7.94865 18.2866 8.41932 18.3971 9.09487" stroke="#344A48" stroke-width="0.364824" stroke-miterlimit="10"/>
<path d="M7.86978 12.9311C7.67556 12.2737 7.99117 11.6064 8.57559 11.4401C9.1602 11.2739 9.79172 11.6719 9.98633 12.3292" stroke="#344A48" stroke-width="0.364824" stroke-miterlimit="10"/>
<path d="M36.9129 2.44347L36.9854 1.54297C36.344 9.51775 37.0351 10.9144 40.4932 11.1819C37.0351 10.9144 36.1317 12.1566 35.5056 19.9433C36.1317 12.1566 35.4538 10.7922 32.0625 10.53C35.4537 10.7922 36.3337 9.64665 36.9129 2.44347Z" fill="#F9ED35" stroke="#F9ED35" stroke-width="0.678343" stroke-miterlimit="10"/>
<path d="M31.5892 16.8894C31.4529 16.2592 31.4098 14.8481 31.752 14.5126C32.0943 14.1771 32.2601 14.3396 32.3498 14.7499C32.4396 15.1601 32.4328 15.3997 32.3498 15.481C32.2669 15.5624 34.891 14.0114 35.22 14.5126C35.5489 15.0137 33.5291 15.7011 33.486 15.8488C33.4432 15.9968 34.1588 16.8308 32.4098 17.4608L31.5892 16.8894Z" fill="#344A48"/>
<path d="M9.39844 15.3867C11.4304 15.3867 11.4304 16.0457 11.4304 16.0457C11.4304 16.0457 9.79126 15.9062 9.41631 16.4829" stroke="#344A48" stroke-width="0.452229" stroke-miterlimit="10"/>
<path d="M47.1445 27.1891C47.1445 20.9237 48.232 12.7279 48.6223 10.0085C48.7484 9.18651 49.2299 8.64799 50.0211 9.50575C50.8124 10.3635 56.2786 15.9651 56.2786 15.9651" stroke="white" stroke-width="2.78161" stroke-miterlimit="10"/>
<path d="M63.9349 27.1891C63.9349 20.9237 62.8489 12.7279 62.4586 10.0085C62.331 9.18651 61.8511 8.64799 61.0598 9.50575C60.2685 10.3635 54.8008 15.9636 54.8008 15.9636" stroke="white" stroke-width="2.78161" stroke-miterlimit="10"/>
<path d="M83.7969 9.33984H99.8962" stroke="white" stroke-width="2.78161" stroke-miterlimit="10"/>
<path d="M91.8438 27.1902V9.33984" stroke="white" stroke-width="2.78161" stroke-miterlimit="10"/>
<path d="M120.262 27.189V8.91797C125.401 8.91797 129.642 9.27002 129.642 13.4693C129.634 17.7164 125.122 17.7089 120.262 18.6338" stroke="white" stroke-width="2.78161" stroke-miterlimit="10"/>
<path d="M132.131 26.6802C129.188 25.0929 126.246 19.551 126.246 17.7773" stroke="white" stroke-width="2.78161" stroke-miterlimit="10"/>
<path d="M69.9258 26.6627C69.9258 26.6627 75.7625 10.4936 75.963 9.87746C76.3913 8.58858 77.4287 8.37228 77.9618 9.87746C78.4949 11.3826 84.0005 26.6657 84.0005 26.6657" stroke="white" stroke-width="2.78161" stroke-miterlimit="10"/>
<path d="M72.043 19.2773C73.3127 20.5916 80.7002 20.4708 81.8453 19.2773" stroke="white" stroke-width="2.78161" stroke-miterlimit="10"/>
<path d="M72.0212 17.3672L68.4414 27.1874H71.0735L73.3775 20.6282L72.0212 17.3672Z" fill="white"/>
<path d="M81.8941 17.3672H79.8711L82.8692 27.1874L85.4876 27.18L81.8941 17.3672Z" fill="white"/>
<path d="M103.637 7.87891V27.1882" stroke="white" stroke-width="2.78161" stroke-miterlimit="10"/>
<path d="M114.352 7.87891V27.1882" stroke="white" stroke-width="2.78161" stroke-miterlimit="10"/>
<path d="M103.93 19.5508C105.24 20.9068 112.862 20.7755 114.045 19.5508" stroke="white" stroke-width="2.78161" stroke-miterlimit="10"/>
<path d="M144.872 7.55078H141.793L155.877 27.1883H158.981L144.872 7.55078Z" fill="white"/>
<path d="M159.003 7.55078H155.915L141.816 27.1883H144.91L159.003 7.55078Z" fill="white"/>
<path d="M137.402 16.4414V27.1895" stroke="white" stroke-width="2.78161" stroke-miterlimit="10"/>
<path d="M137.402 7.53125C136.614 7.53125 135.843 7.761 135.187 8.19144C134.531 8.62189 134.02 9.2337 133.718 9.9495C133.416 10.6653 133.337 11.453 133.491 12.2129C133.645 12.9727 134.024 13.6708 134.582 14.2186C135.14 14.7665 135.851 15.1395 136.624 15.2907C137.398 15.4419 138.2 15.3643 138.929 15.0678C139.658 14.7713 140.28 14.2692 140.719 13.625C141.157 12.9808 141.391 12.2234 141.391 11.4486C141.391 10.4097 140.971 9.41327 140.223 8.67862C139.475 7.94397 138.46 7.53125 137.402 7.53125V7.53125ZM136.236 13.3208V9.86436L139.362 11.6052L136.236 13.3208Z" fill="#F9ED35"/>
<path d="M48.8095 33.9123L48.6729 33.4931H47.3059L47.1692 33.9123H45.8555L47.2619 30.332H48.7123L50.1172 33.9123H48.8095ZM47.9864 31.3927L47.6097 32.5473H48.3691L47.9864 31.3927Z" fill="#F9ED35"/>
<path d="M51.5781 32.1199C51.5781 31.013 52.4803 30.2656 53.6741 30.2656C54.675 30.2656 55.1777 30.8131 55.4055 31.3099L54.4122 31.7454C54.3571 31.5955 54.2572 31.4653 54.1254 31.3722C53.9937 31.279 53.8364 31.2271 53.6741 31.2233C53.5544 31.2233 53.4359 31.2465 53.3253 31.2915C53.2148 31.3364 53.1143 31.4024 53.0297 31.4855C52.9451 31.5686 52.878 31.6673 52.8322 31.7759C52.7864 31.8845 52.7628 32.0008 52.7628 32.1184C52.7628 32.2359 52.7864 32.3523 52.8322 32.4609C52.878 32.5695 52.9451 32.6682 53.0297 32.7513C53.1143 32.8344 53.2148 32.9003 53.3253 32.9453C53.4359 32.9903 53.5544 33.0134 53.6741 33.0134C53.8362 33.0098 53.9934 32.9581 54.1251 32.8652C54.2568 32.7723 54.3569 32.6425 54.4122 32.4928L55.4101 32.9254C55.1868 33.4043 54.6795 33.9697 53.6786 33.9697C52.4803 33.9741 51.5781 33.2208 51.5781 32.1199Z" fill="#F9ED35"/>
<path d="M58.0378 33.9089V31.2715H57.0156V30.3242H60.2051V31.2715H59.1875V33.9089H58.0378Z" fill="#F9ED35"/>
<path d="M62.0781 33.9083V30.3281H63.2324V33.9083H62.0781Z" fill="#F9ED35"/>
<path d="M66.2994 33.9083L64.8945 30.3281H66.2022L67.0254 32.7418L67.8471 30.3281H69.1563L67.7499 33.9083H66.2994Z" fill="#F9ED35"/>
<path d="M70.8164 33.9083V30.3281H73.7021V31.2754H71.9692V31.6289H73.6657V32.5747H71.9692V32.967H73.7067V33.9128L70.8164 33.9083Z" fill="#F9ED35"/>
<path d="M79.405 33.9089V31.2715H78.3828V30.3242H81.5723V31.2715H80.5547V33.9089H79.405Z" fill="#F9ED35"/>
<path d="M83.2461 32.1199C83.2461 31.0175 84.1574 30.2656 85.3314 30.2656C86.5055 30.2656 87.4167 31.0115 87.4167 32.1199C87.4167 33.2283 86.5055 33.9741 85.3314 33.9741C84.1574 33.9741 83.2461 33.2208 83.2461 32.1199ZM86.2457 32.1199C86.2457 31.9429 86.1923 31.7698 86.0922 31.6226C85.992 31.4754 85.8497 31.3607 85.6832 31.293C85.5167 31.2252 85.3334 31.2075 85.1567 31.242C84.9799 31.2766 84.8175 31.3618 84.6901 31.487C84.5626 31.6122 84.4758 31.7716 84.4407 31.9453C84.4055 32.1189 84.4236 32.2989 84.4925 32.4624C84.5615 32.626 84.6783 32.7657 84.8282 32.8641C84.978 32.9624 85.1542 33.0149 85.3345 33.0149C85.4548 33.0183 85.5746 32.9973 85.6865 32.9535C85.7983 32.9096 85.8998 32.8437 85.9848 32.7599C86.0697 32.676 86.1363 32.576 86.1804 32.4659C86.2245 32.3559 86.2452 32.2381 86.2412 32.1199H86.2457Z" fill="#F9ED35"/>
<path d="M91.8443 33.9089L90.4379 32.0934V33.9089H89.2852V30.3287H90.4729L91.7988 32.0278V30.3242H92.9516V33.9044L91.8443 33.9089Z" fill="#F9ED35"/>
<path d="M101.31 33.9087V31.7621L100.458 33.9162H99.9445L99.094 31.7621V33.9162H97.9336V30.3359H99.5268L100.195 32.0559L100.863 30.3359H102.458V33.9162L101.31 33.9087Z" fill="#F9ED35"/>
<path d="M104.332 32.1199C104.332 31.0175 105.243 30.2656 106.417 30.2656C107.591 30.2656 108.503 31.0115 108.503 32.1199C108.503 33.2283 107.591 33.9741 106.417 33.9741C105.243 33.9741 104.332 33.2208 104.332 32.1199ZM107.332 32.1199C107.332 31.9429 107.278 31.7698 107.178 31.6226C107.078 31.4754 106.936 31.3607 106.769 31.293C106.603 31.2252 106.419 31.2075 106.243 31.242C106.066 31.2766 105.903 31.3618 105.776 31.487C105.649 31.6122 105.562 31.7716 105.527 31.9453C105.491 32.1189 105.51 32.2989 105.578 32.4624C105.647 32.626 105.764 32.7657 105.914 32.8641C106.064 32.9624 106.24 33.0149 106.42 33.0149C106.541 33.0189 106.661 32.9984 106.774 32.9548C106.886 32.9113 106.988 32.8455 107.074 32.7616C107.159 32.6776 107.226 32.5774 107.27 32.467C107.315 32.3566 107.336 32.2385 107.332 32.1199V32.1199Z" fill="#F9ED35"/>
<path d="M110.371 33.9083V30.3281H112.074C113.274 30.3281 114.165 30.9741 114.165 32.1182C114.165 33.2624 113.274 33.9083 112.08 33.9083H110.371ZM112.994 32.1182C112.994 31.6349 112.69 31.2754 112.083 31.2754H111.528V32.967H112.077C112.195 32.9744 112.314 32.9578 112.425 32.9181C112.537 32.8785 112.639 32.8167 112.725 32.7367C112.811 32.6566 112.879 32.56 112.925 32.4528C112.972 32.3456 112.995 32.2302 112.994 32.1138V32.1182Z" fill="#F9ED35"/>
<path d="M116.035 33.9083V30.3281H118.921V31.2754H117.189V31.6289H118.886V32.5747H117.189V32.967H118.927V33.9128L116.035 33.9083Z" fill="#F9ED35"/>
<path d="M127.178 33.9087V31.7621L126.334 33.9087H125.819L124.967 31.7621V33.9162H123.812V30.3359H125.407L126.076 32.0559L126.744 30.3359H128.337V33.9162L127.178 33.9087Z" fill="#F9ED35"/>
<path d="M132.95 33.9083L132.813 33.4892H131.446L131.309 33.9083H130L131.406 30.3281H132.857L134.262 33.9083H132.95ZM132.126 31.3888L131.75 32.5434H132.509L132.126 31.3888Z" fill="#F9ED35"/>
<path d="M135.715 32.1199C135.715 31.013 136.617 30.2656 137.811 30.2656C138.81 30.2656 139.313 30.8131 139.542 31.3099L138.547 31.7454C138.493 31.5955 138.393 31.4653 138.262 31.3721C138.13 31.2789 137.973 31.227 137.811 31.2233C137.691 31.2233 137.573 31.2465 137.462 31.2915C137.351 31.3364 137.251 31.4024 137.166 31.4855C137.082 31.5686 137.015 31.6673 136.969 31.7759C136.923 31.8845 136.9 32.0008 136.9 32.1184C136.9 32.2359 136.923 32.3523 136.969 32.4609C137.015 32.5695 137.082 32.6682 137.166 32.7513C137.251 32.8344 137.351 32.9003 137.462 32.9453C137.573 32.9903 137.691 33.0134 137.811 33.0134C137.973 33.0097 138.13 32.958 138.261 32.8651C138.393 32.7722 138.492 32.6424 138.547 32.4928L139.547 32.9254C139.324 33.4043 138.815 33.9697 137.815 33.9697C136.617 33.9741 135.715 33.2208 135.715 32.1199Z" fill="#F9ED35"/>
<path d="M143.885 33.9083V32.5389H142.518V33.9083H141.363V30.3281H142.518V31.5976H143.885V30.3281H145.039V33.9083H143.885Z" fill="#F9ED35"/>
<path d="M147.109 33.9083V30.3281H148.264V33.9083H147.109Z" fill="#F9ED35"/>
<path d="M152.896 33.9089L151.491 32.0934V33.9089H150.332V30.3287H151.521L152.846 32.0278V30.3242H154V33.9044L152.896 33.9089Z" fill="#F9ED35"/>
<path d="M156.078 33.9083V30.3281H158.964V31.2754H157.232V31.6289H158.929V32.5747H157.232V32.967H158.968V33.9128L156.078 33.9083Z" fill="#F9ED35"/>
</svg>
