<svg width="131" height="27" viewBox="0 0 131 27" fill="none" xmlns="http://www.w3.org/2000/svg">
<path fill-rule="evenodd" clip-rule="evenodd" d="M14.4547 23.8671C13.3809 23.8537 12.3504 23.9593 11.3112 24.2537C10.5617 24.4669 9.71367 24.4947 8.8456 24.3963C7.893 24.2877 6.91384 24.5501 5.92386 24.441C5.31246 24.3733 4.5539 24.7682 4.26901 23.7944C3.85836 23.7272 3.4477 23.66 2.9314 23.5758C2.90414 23.1441 2.87315 22.7256 2.85532 22.3086C2.8515 22.2197 2.9209 22.0594 2.90999 22.055C2.02583 21.6907 2.25171 20.5565 1.44032 20.1082C0.999063 19.8646 0.708717 18.9926 0.988176 18.7184C1.55285 18.1644 1.31808 17.5598 1.22341 16.9087C1.67111 16.0236 2.4383 15.4761 3.35128 15.0503C4.25253 14.6296 5.07356 14.0462 5.99239 13.6685C7.85679 12.9014 9.7594 12.2172 11.6529 11.5132C13.6072 10.7866 15.5911 10.1466 17.61 9.58081C19.4529 9.06374 21.2806 8.49877 23.1237 7.97779C24.2467 7.6603 25.3638 7.32356 26.4805 6.98647C26.5284 6.97213 26.5417 6.86552 26.6357 6.6609C26.1962 6.66023 25.7633 6.78476 25.4782 6.62774C25.1032 6.42201 24.8359 6.19533 24.4945 6.5617C24.058 5.9411 23.3259 6.72143 22.8793 6.14747C22.4679 6.35899 21.9521 6.31872 21.5934 6.18456C21.1717 6.02772 20.8767 5.79926 20.4498 6.10904C20.3294 6.19678 19.8895 6.09716 19.8002 5.96032C19.4096 5.36144 18.9196 6.02424 18.5549 5.75663C18.114 5.43267 17.7485 5.43093 17.4023 5.81182C16.7671 5.48819 16.1004 5.70171 15.4481 5.6047C14.8863 5.52051 14.2442 5.41855 13.766 5.60779C13.4595 5.72969 13.2904 5.72857 13.0223 5.63214C12.1468 5.31869 11.2493 5.53011 10.3545 5.38584C9.4524 5.23999 8.5225 5.35346 7.60359 5.34108C6.44862 5.32598 5.29299 5.30431 4.13713 5.27644C3.44331 5.25975 3.07603 4.72431 2.84099 4.22695C2.66272 3.84955 2.68485 3.45366 2.1159 3.41034C2.04029 3.40417 1.97304 2.98016 1.86696 2.63384C2.19713 2.65757 2.48447 2.67874 2.77303 2.70017C2.78008 2.625 2.78789 2.54976 2.79448 2.47425C2.55551 2.39545 2.31699 2.31698 2.04354 2.22656C2.07768 2.14663 2.09404 1.96918 2.18969 1.91012C2.41895 1.76937 2.67334 1.61899 2.9384 1.58753C4.42383 1.41044 5.90722 1.1942 7.40528 1.12881C9.92645 1.01859 12.4563 0.959298 14.9872 0.979386C16.7187 0.992599 18.456 1.04652 20.1881 1.10176C21.7468 1.15126 23.3261 1.26682 24.8868 1.35546C26.8883 1.46919 28.8803 1.65016 30.8739 1.86526C32.1412 2.00195 33.4053 2.18848 34.6709 2.35537C35.508 2.46627 36.06 3.0846 36.7043 3.53939C36.9694 4.09598 36.8821 4.69506 37.4031 5.26556C37.996 5.91588 37.9278 8.64813 37.4747 9.44736C37.1392 10.0391 36.4393 10.3138 35.8723 10.6962C34.8796 11.3665 33.8151 11.877 32.6057 12.1002C32.4754 12.1247 32.2809 12.1893 32.2527 12.2819C32.021 13.0511 31.1118 12.6823 30.7067 13.1429C29.7888 13.0038 29.0061 13.4118 28.1727 13.6165C28.0299 13.6516 27.8 13.5926 27.7383 13.6742C26.9328 14.7454 25.5753 14.6532 24.4601 15.0646C24.1122 15.1931 23.7261 15.2434 23.3994 15.4056C23.1744 15.5167 23.0223 15.7581 22.8381 15.9413C22.9983 16.0962 23.0744 16.2262 23.1388 16.2238C24.5089 16.176 25.876 16.0346 27.2472 16.0728C29.0327 16.1233 30.7971 15.8918 32.5982 16.1067C33.4591 16.2089 34.327 15.9943 35.2232 16.041C36.8751 16.1276 38.5308 15.8794 40.178 16.014C43.008 16.2461 45.8226 15.8556 48.6515 16.3474C49.782 15.9598 50.9877 16.4232 52.1413 16.2413C52.4521 16.1918 52.7978 16.3133 53.1273 16.3352C53.606 16.3672 54.0848 16.3899 54.5631 16.3994C56.4896 16.4383 58.4157 16.4648 60.342 16.5076C61.1552 16.5263 61.971 16.6001 62.7833 16.6041C65.0768 16.6157 67.3703 16.8031 69.6639 16.9215C70.8571 16.9833 72.0457 16.8504 73.2295 17.2124C74.5527 16.8172 75.9189 17.2094 77.2636 17.2375C78.8894 17.2719 80.5175 17.3664 82.1449 17.445C84.2469 17.5463 86.3486 17.6535 88.4506 17.7669C89.7849 17.8394 91.1196 17.9215 92.4542 18.0103C94.0722 18.1179 95.6881 18.2803 97.3089 18.3565C99.7726 18.4728 102.238 18.7433 104.702 18.9605C107.778 19.2314 110.854 19.4991 113.93 19.7981C115.624 19.9629 117.317 20.1761 119.009 20.3891C121.024 20.6429 123.042 20.8815 125.052 21.1986C126.5 21.4275 127.936 21.7381 129.402 21.8334C129.76 21.857 130.112 22.3402 130.609 22.7203C130.331 22.8124 130.162 22.9129 129.985 22.9189C129.451 22.9374 128.913 22.9189 128.279 22.9143C128.857 23.9644 130.28 23.2802 130.689 24.2459C130.3 24.2863 129.881 24.3295 129.462 24.3727C129.456 24.4758 129.449 24.5786 129.442 24.6818C129.755 24.809 130.067 24.936 130.483 25.1047C130.216 25.5744 129.955 26.0333 129.596 26.6638C129.115 26.6597 128.332 26.8599 127.745 26.5948C127.033 26.2729 126.306 26.8325 125.657 26.243C125.488 26.0896 125.155 26.7761 124.816 26.2895C124.454 25.7672 124.17 26.7149 123.828 26.27C123.508 25.8546 123.098 26.3397 123.001 26.2605C122.39 25.7621 121.774 26.2127 121.17 26.071C120.525 25.9202 119.852 25.8561 119.196 25.8495C118.611 25.8434 118.069 25.8007 117.531 25.5008C117.342 25.3947 116.945 25.3525 116.845 25.4619C116.511 25.8279 116.3 25.572 115.978 25.4239C115.747 25.3174 115.38 25.5406 115.135 25.4458C114.848 25.3348 114.629 25.0689 114.422 25.479C113.553 24.8842 112.507 25.8243 111.652 25.0228C111.568 24.9449 111.354 24.9259 111.241 24.9696C109.918 25.4809 108.549 25.008 107.201 24.9553C105.237 24.8782 103.272 24.8058 101.309 24.7158C99.7335 24.6435 98.1573 24.5806 96.5826 24.4497C95.7459 24.3801 94.8451 24.7138 94.075 24.0192C94.0221 23.9713 93.8621 23.9751 93.794 24.0176C92.4303 24.8699 91.0133 23.6997 89.632 23.8995C89.4007 23.9333 89.1305 23.8265 88.9173 23.8916C87.0172 24.473 85.0318 23.8896 83.0944 24.0042C81.6724 24.0882 80.2206 23.911 78.7833 23.8766C76.9994 23.8333 75.2169 23.8227 73.4339 23.7849C73.2542 23.7809 73.0698 23.6949 72.8918 23.6339C71.4367 23.1341 69.9565 23.3889 68.488 23.2568C68.1645 23.2281 67.7812 23.3026 67.5175 23.4661C66.9167 23.8387 66.1987 23.7069 65.714 23.4689C65.1979 23.2143 64.7843 23.2355 64.3032 23.2493C63.3561 23.2765 62.3799 23.1142 61.4998 23.5444C59.9622 23.3586 58.4222 23.451 56.8985 23.4532C55.6435 23.4555 54.3487 23.2098 53.0957 23.5467C52.2731 23.767 51.3794 23.5256 50.5673 23.2594C50.2285 23.1485 49.9315 23.0071 49.595 23.0873C49.232 23.1734 48.8734 23.4145 48.5249 23.3747C48.1427 23.3307 47.8488 23.4166 47.4994 23.4822C46.5174 23.6665 45.4947 23.7889 44.5579 23.105C44.483 23.0504 44.3826 23.0024 44.2954 23.0001C43.6675 22.9856 43.0302 22.9228 42.4161 22.9953C41.7019 23.0785 40.9224 22.9472 40.2966 23.4055C40.2285 23.4555 40.1029 23.4385 40.0031 23.4407C39.1773 23.458 38.3517 23.4854 37.5251 23.4833C36.6974 23.4809 35.9128 23.6888 35.0437 23.589C34.2489 23.4971 33.4145 23.5285 32.5958 23.4687C32.1293 23.4104 31.5465 23.1558 31.2185 23.3318C30.2258 23.8644 29.0831 23.027 28.1426 23.6123C27.1457 23.1704 26.1636 23.6809 25.1696 23.4983C24.8923 23.4472 24.5606 23.3001 24.3438 23.3893C23.1746 23.8722 21.8513 23.2919 20.6903 23.7502C19.8479 23.3499 19.0701 23.6268 18.2478 23.7567C17.6298 23.8545 16.9453 23.6436 16.2909 23.5698C15.7905 24.1764 15.0488 23.688 14.4547 23.8671Z" fill="#F9ED35"/>
</svg>
