<svg width="81" height="26" viewBox="0 0 81 26" fill="none" xmlns="http://www.w3.org/2000/svg">
<path fill-rule="evenodd" clip-rule="evenodd" d="M44.7382 14.9373C44.5279 14.9707 44.3371 15.0651 44.2168 15.0086C43.8163 14.8203 43.3831 14.8142 42.9667 14.7317C42.4562 14.6303 41.9072 14.6576 41.4192 14.5384C40.7488 14.3746 40.063 14.2537 39.3934 14.1512C38.7032 14.0454 38.0306 13.8295 37.3239 13.7967C37.0078 13.7819 36.6997 13.6062 36.3853 13.5115C36.3516 13.5014 36.3011 13.5457 36.2468 13.5702C36.251 13.6346 36.2557 13.7031 36.2616 13.7905C36.6766 13.849 37.1159 13.8279 37.476 13.9866C37.7994 14.129 38.1551 13.9914 38.3957 14.1387C38.6851 14.3159 39.0157 14.1393 39.2322 14.3178C39.4867 14.5281 39.7814 14.298 40.0093 14.4682C40.2822 14.6721 40.6173 14.4668 40.8716 14.5849C41.2287 14.7509 41.6604 14.5849 41.9317 14.7607C42.2994 14.9988 42.745 14.6782 43.0422 15.0267C43.4447 14.937 43.809 15.135 44.1937 15.1788C44.6285 15.2283 45.0875 15.21 45.4897 15.3517C45.8328 15.4729 46.2078 15.3715 46.4818 15.5119C46.7361 15.6422 46.9927 15.5356 47.1848 15.6486C47.4442 15.801 47.7032 15.7542 47.9642 15.7929C48.1817 15.8252 48.4004 15.8681 48.6171 15.9197C49.0157 16.0146 49.4131 16.1637 49.839 16.0926C49.9376 16.0762 50.0966 16.0486 50.1331 16.0974C50.361 16.4012 50.7111 16.13 50.9668 16.301C51.2581 16.4957 51.5979 16.3575 51.9144 16.3923C52.0143 16.4035 52.1539 16.3514 52.211 16.4018C52.4257 16.5898 52.7087 16.4645 52.9051 16.5633C53.1758 16.6993 53.3847 16.5035 53.6234 16.5439C53.9802 16.6035 54.3395 16.6508 54.6989 16.6968C55.0055 16.736 55.3133 16.7656 55.6581 16.8037C55.6687 16.7948 55.7208 16.7505 55.7503 16.7255C55.9286 16.8171 56.0876 16.899 56.2077 16.9611C56.5244 16.8037 56.8007 16.7909 57.0753 16.9486C57.3783 17.1224 57.636 16.9252 57.8995 16.8436C58.2028 16.7497 58.4273 17.197 58.7922 16.9001C58.9752 16.7514 59.3504 16.838 59.6715 16.8163C59.1841 16.5361 58.6925 16.4831 58.2109 16.5575C57.7154 16.6347 57.2566 16.2737 56.7658 16.4854C56.4784 16.2731 56.2185 16.4283 55.9492 16.5611C55.8202 16.4466 55.6941 16.3344 55.5495 16.2057C55.3818 16.2717 55.2311 16.3313 55.0729 16.3937C54.8512 16.2386 54.6195 16.1297 54.3858 16.384C54.29 16.2884 54.2006 16.199 54.0958 16.094C53.5262 16.0659 52.9318 16.1578 52.3578 15.9447C52.1152 15.8548 51.8475 15.8113 51.5879 15.7918C51.1008 15.7556 50.6186 15.7453 50.1281 15.6673C49.6048 15.5843 49.0794 15.3757 48.5246 15.4723C48.4346 15.4882 48.3215 15.3701 48.2135 15.3105C48.1461 15.3676 48.0876 15.4581 48.0366 15.4542C47.6294 15.423 47.2227 15.3793 46.818 15.325C46.7565 15.3166 46.7047 15.2336 46.6478 15.1852C46.5966 15.232 46.5423 15.281 46.4601 15.3562C46.2696 15.2587 46.0668 15.1548 45.8635 15.0509C45.8465 15.0682 45.8309 15.0977 45.8103 15.1022C45.4808 15.169 45.1766 14.9323 44.8399 15.0186C44.7987 15.0292 44.7293 14.9297 44.7382 14.9373ZM12.2616 8.6211C12.236 8.51832 12.2187 8.4498 12.192 8.34312C12.131 8.38825 12.0833 8.4239 12.0299 8.46401C11.6525 8.25371 11.2736 8.02977 10.8834 7.82895C10.3598 7.55961 9.82416 7.32898 9.32196 7.00059C8.89581 6.72206 8.35657 6.56218 7.99949 6.19869C7.66162 5.85582 7.11904 5.89509 6.86028 5.47311C6.34472 5.40404 6.09069 4.91855 5.65702 4.71272C5.52945 4.65227 5.44366 4.54198 5.27153 4.53223C5.098 4.52192 5.10023 4.48042 4.90609 4.11498C4.85289 4.10746 4.78326 4.09549 4.71307 4.08908C4.66321 4.08434 4.57659 4.10384 4.56712 4.08379C4.33816 3.5983 3.69781 3.72002 3.42457 3.30556C3.39867 3.26657 3.38196 3.19137 3.35382 3.18747C2.55415 3.0819 2.07396 2.38529 1.36565 2.11817C1.10049 2.0179 0.993251 1.74132 0.743963 1.63325C0.637285 1.58673 0.538684 1.52044 0.42365 1.4561C0.393289 1.33717 0.380755 1.18815 0.316693 1.06615C0.252351 0.943598 0.13676 0.847504 -6.0309e-08 0.689854C0.407495 0.509364 0.788807 0.651973 1.13475 0.467306C0.855098 0.454215 0.57545 0.441124 0.275748 0.426918C0.259036 0.365084 0.240653 0.296843 0.22227 0.229438C1.18627 -0.0791773 1.19964 -0.111766 2.33049 0.351157C3.13044 0.678992 3.99222 0.893184 4.67769 1.46752C5.33503 1.6157 5.85645 2.04436 6.4436 2.33599C7.2441 2.73373 8.00339 3.21281 8.79526 3.62811C9.79185 4.15119 10.8004 4.65172 11.8101 5.14946C12.7552 5.61544 13.7295 6.01013 14.7124 6.39395C15.3609 6.64713 16.0026 6.94489 16.6524 7.20894C17.3025 7.47299 17.9615 7.71531 18.6186 7.96265C19.1004 8.1437 19.5731 8.38351 20.0725 8.47599C20.6009 8.57375 20.9964 8.94671 21.5139 9.04141C21.8404 9.10129 22.1331 9.31771 22.4885 9.25504C22.5375 9.24613 22.6044 9.23304 22.6381 9.25672C23.1966 9.65363 23.882 9.6773 24.5029 9.88927C25.148 10.1093 25.8081 10.2865 26.4663 10.4656C26.8303 10.5647 27.2041 10.6154 27.557 10.7675C27.9734 10.9469 28.4411 10.9212 28.875 11.0669C29.4106 11.2466 29.9719 11.3688 30.5217 11.4803C31.059 11.5892 31.5943 11.7098 32.1247 11.8423C33.1589 12.1005 34.2257 12.2178 35.2378 12.5741C35.5055 12.6685 35.7941 12.6089 36.0871 12.7225C36.4821 12.876 37.0063 12.7381 37.3647 12.9309C37.7605 13.1434 38.2198 12.8643 38.5465 13.2035C39.3306 13.1813 40.0676 13.5077 40.8506 13.5152C41.0832 13.5172 41.3146 13.611 41.5472 13.6589C41.8043 13.7121 42.0611 13.7665 42.3198 13.8096C42.5549 13.8492 42.8271 13.7144 43.0159 13.9634C43.4136 13.9102 43.7869 14.0762 44.1693 14.0999C44.6592 14.1302 45.1216 14.3795 45.6241 14.2673C45.9015 14.5764 46.3552 14.2634 46.6474 14.5569C46.6984 14.6082 46.8407 14.5681 46.941 14.5714C47.2312 14.5809 47.5103 14.5611 47.7969 14.7082C48.0423 14.8341 48.3579 14.6483 48.6526 14.8536C48.8225 14.9717 49.1414 14.8747 49.3823 14.8747C49.4823 14.975 49.572 15.0644 49.6642 15.1569C50.0787 14.875 50.4215 15.0628 50.7561 15.3237C50.97 15.0672 51.3129 15.1073 51.5076 15.2148C51.7582 15.3527 51.9855 15.3218 52.2223 15.326C52.9136 15.3382 53.584 15.5644 54.287 15.4989C54.4678 15.4819 54.667 15.6647 54.8522 15.753C54.9449 15.7173 55.0494 15.661 55.1605 15.6376C55.4714 15.5719 55.7674 15.7323 56.1025 15.6594C56.3802 15.5989 56.7256 15.7106 57.0008 15.8348C57.1523 15.9031 57.2041 15.7995 57.2763 15.8059C57.6854 15.8429 58.1155 15.6393 58.5113 15.9276C58.6107 15.9997 58.8074 15.9385 58.9592 15.9385C60.0477 15.9385 61.1362 15.9351 62.2247 15.9412C62.4701 15.9424 62.7319 15.9293 62.9558 16.0084C63.1859 16.0897 63.3243 15.824 63.5449 15.9318C63.6875 16.0017 63.8608 16.0087 64.0471 16.0493C64.2131 16.0178 64.4215 15.9474 64.6309 15.9438C65.4406 15.9304 66.2542 15.8936 67.0603 15.9499C68.0636 16.0201 69.0418 15.8045 70.0345 15.7583C70.7498 15.7251 71.4531 15.4313 72.2176 15.2399C72.358 15.2914 72.5711 15.3697 72.8006 15.4538C72.8276 15.4301 72.8814 15.3822 72.9468 15.324C73.085 15.4903 73.2226 15.656 73.3839 15.8502C72.9541 15.9599 72.5931 16.0518 72.1703 16.1599C72.2798 16.3134 72.348 16.4089 72.4302 16.5242L73.2131 16.5242C73.3112 16.6225 73.3828 16.6944 73.5095 16.8209C73.3351 16.9507 73.161 17.0805 72.9602 17.2303C73.1112 17.2888 73.1981 17.3225 73.2933 17.3595C73.3855 17.7801 73.1101 18.0325 72.8585 18.2929C72.9065 18.3461 72.9535 18.3993 72.9655 18.4127C72.7825 18.5932 72.6059 18.7673 72.3951 18.9753C72.1942 18.9271 71.9444 18.6645 71.6453 18.8951C71.6929 18.9489 71.7408 19.0026 71.831 19.104C71.4993 19.0505 71.2107 19.0037 70.9225 18.9572C70.9133 18.9954 70.9038 19.0344 70.8943 19.0728C71.0344 19.1065 71.1745 19.1402 71.3595 19.1845C71.1701 19.2828 71.0163 19.3628 70.8172 19.4661C70.7746 19.3775 70.7375 19.3015 70.6662 19.1544C70.545 19.1472 70.3587 19.136 70.1311 19.1227C70.1949 19.2736 70.2414 19.3836 70.3267 19.5847C70.1415 19.5847 70.0228 19.5931 69.9055 19.5834C69.058 19.5129 68.238 19.8009 67.3856 19.7482C66.528 19.6953 65.6637 19.7599 64.805 19.7176C64.6223 19.7087 64.5106 19.9928 64.2961 19.7847C64.2299 19.7204 63.9658 19.8613 63.8981 19.7967C63.6536 19.5639 63.5678 19.9179 63.3711 19.9034C63.0297 19.878 62.7327 19.7079 62.3715 19.7218C61.2846 19.7633 60.1947 19.7502 59.1065 19.7296C58.6965 19.7221 58.289 19.6151 57.8782 19.5903C57.4568 19.565 57.0328 19.5847 56.6114 19.5544C57.2314 19.3814 58.6932 19.4009 59.3544 19.4926C59.241 19.4586 59.128 19.4246 59.0146 19.3906C59.048 19.3541 59.0817 19.3176 59.1151 19.2809C58.6609 19.2809 58.2046 19.2558 57.7526 19.2867C57.1041 19.3313 56.4905 19.0168 55.8404 19.1291C55.6129 18.9269 55.2834 19.0722 55.0797 18.9564C54.7553 18.772 54.4828 19.1165 54.1506 18.9196C53.8996 18.7709 53.5272 18.8271 53.1409 18.7848C53.1108 18.7603 53.0222 18.6881 52.9336 18.616C52.9495 18.5826 52.9654 18.5492 52.981 18.5157C53.7138 18.5929 54.4466 18.67 55.2162 18.7514C55.2382 18.7322 55.3132 18.667 55.3881 18.6018C55.307 18.5207 55.2354 18.4492 55.1639 18.3779C55.0901 18.4327 55.0162 18.4876 54.8566 18.6065C54.8135 18.4319 54.7734 18.2695 54.7332 18.1071L54.5764 18.24C54.5074 18.2742 54.438 18.3088 54.3508 18.352C54.3349 18.2754 54.3207 18.206 54.3001 18.1063C53.9971 18.0322 53.6745 17.9537 53.3484 17.874C53.2829 18.0127 53.2339 18.1166 53.1782 18.2347C52.913 18.138 52.654 18.0439 52.4039 17.9528C52.3295 17.9968 52.249 18.045 52.1368 18.1116C51.9838 17.918 51.8449 17.7417 51.7056 17.5654C51.6223 17.6484 51.5864 17.6843 51.534 17.7367C51.4048 17.6734 51.2689 17.6072 51.1246 17.5367C51.2009 17.4626 51.2733 17.3924 51.3524 17.3158C51.4017 17.3587 51.4541 17.4044 51.5343 17.4743C51.6638 17.4152 51.81 17.3481 51.9735 17.2735C52.0153 17.393 52.046 17.4813 52.0788 17.5751C52.2916 17.503 52.5025 17.4314 52.7362 17.352C53.032 17.5885 53.4166 17.3921 53.8002 17.4774C53.8815 17.5545 53.9887 17.6562 54.0962 17.7576C54.3071 17.4818 54.6157 17.6779 54.9065 17.5787C54.9107 17.5113 54.916 17.425 54.9252 17.2712C54.8174 17.3554 54.7675 17.3938 54.677 17.4645C54.6029 17.3542 54.5218 17.2339 54.4361 17.1064C54.3077 17.2426 54.2216 17.3339 54.1227 17.4389C53.9623 17.3568 53.8038 17.2754 53.6369 17.1896C53.4155 17.4077 53.1983 17.2835 52.9504 17.1626C52.7417 17.0607 52.4958 17.0353 52.2507 16.9724C52.2005 16.8841 52.1382 16.7746 52.0136 16.5557C51.9228 16.7757 51.8819 16.8749 51.8203 17.0242C51.5986 16.9919 51.3624 16.9576 51.1262 16.9225C50.8878 16.8871 50.6051 16.9186 50.4218 16.7989C50.1759 16.6376 50.023 17.0105 49.7723 16.8133C49.6043 16.681 49.3147 16.7033 49.0815 16.6568C48.9748 16.8125 48.8952 16.9292 48.7459 17.1481C49.028 17.1228 49.1993 17.1072 49.4589 17.0835C49.4445 17.0701 49.5127 17.1334 49.5999 17.2139C49.5612 17.2637 49.523 17.3125 49.4734 17.3768C49.5096 17.4211 49.5517 17.4723 49.5926 17.5222C49.5662 17.5492 49.5353 17.6072 49.5082 17.6052C49.2868 17.5893 49.0665 17.5484 48.845 17.5428C48.6072 17.5372 48.3117 17.6545 48.1434 17.5512C47.888 17.3944 47.6521 17.5166 47.3972 17.4409C47.3084 17.3565 47.2 17.2531 47.0594 17.1194C46.9474 17.1999 46.8324 17.2827 46.6583 17.4077C47.4256 17.7762 48.2206 17.8099 49.0985 17.9899C48.6916 18.1116 48.3729 18.0879 48.0771 18.0492C47.9011 18.0264 47.7407 17.8904 47.5298 17.9063C47.3624 17.9191 47.1251 17.7865 47.0329 17.8606C46.7981 18.0492 46.734 17.7567 46.58 17.7604C46.3778 17.7651 46.1725 17.781 45.9734 17.7565C45.7383 17.7278 45.5102 17.6475 45.2756 17.6133C45.0623 17.5821 44.8595 17.5506 44.647 17.4854C44.3072 17.3815 43.9122 17.4579 43.5379 17.576C43.7905 17.5969 44.0429 17.618 44.4075 17.6487C43.7036 17.9562 43.1454 17.5414 42.5705 17.6094C42.4583 17.4565 42.368 17.2807 42.2282 17.164C42.1577 17.1052 41.9979 17.154 41.7188 17.154C41.9672 17.2757 42.0625 17.3222 42.1591 17.3696C42.1238 17.4008 42.0889 17.4562 42.0594 17.4534C41.7483 17.4258 41.4391 17.5136 41.1247 17.3225C40.8929 17.1816 40.5757 17.3381 40.2684 17.1938C39.9133 17.027 39.4613 17.0788 39.0596 16.9958C38.6646 16.9139 38.2661 16.8562 37.8736 16.7493C37.2996 16.593 36.6979 16.5387 36.1227 16.3858C35.549 16.2334 34.9309 16.2933 34.3878 15.9922C34.1142 15.8404 33.7895 15.9287 33.4772 15.8114C32.8171 15.5641 32.1029 15.4627 31.4147 15.287C31.0473 15.1934 30.7003 15.0352 30.3081 15.021C29.8387 15.0037 29.5315 14.7959 29.3354 14.414C29.2817 14.5241 29.236 14.6182 29.1864 14.7199C29.1302 14.6697 29.0775 14.6229 29.0246 14.5759C28.9733 14.6218 28.9199 14.6697 28.9215 14.6681C28.6413 14.5773 28.3954 14.4291 28.1539 14.4361C27.8238 14.4452 27.6277 14.2216 27.2005 14.1363C26.53 14.2751 25.8591 13.647 25.0288 13.6433C25.0087 13.5083 24.9875 13.3687 24.9469 13.0969C24.8274 13.3052 24.7561 13.4297 24.7366 13.4637C24.0553 13.3601 23.5294 13.1116 23.0208 12.815L23.0208 12.6047C22.9072 12.661 22.8233 12.7261 22.7306 12.7426C22.6077 12.7643 22.4785 12.7481 22.3298 12.7481C22.2576 12.6649 22.1752 12.5702 22.081 12.4615L21.4123 12.4615C21.3733 12.3518 21.3421 12.2635 21.3031 12.1535C21.2276 12.2014 21.1563 12.2468 21.0402 12.3206C20.8917 12.1869 20.7326 12.0434 20.6054 11.9287C20.5875 11.7616 20.575 11.6451 20.5524 11.436C20.3912 11.6777 20.2867 11.834 20.1764 11.9994C19.7224 11.8203 19.3096 11.5543 18.8019 11.4633C18.354 11.383 17.9855 11.0315 17.5189 10.8984C17.2616 10.8249 17.0532 10.553 16.7259 10.621C16.5691 10.3678 16.2903 10.3447 16.046 10.2455C15.7405 10.1218 15.3388 10.1987 15.1252 9.92018C14.9096 9.6397 14.4709 9.79986 14.3269 9.44556C14.0133 9.41019 13.761 9.1907 13.478 9.1233C13.1518 9.04587 12.9006 8.913 12.658 8.7016C12.58 8.63363 12.4273 8.65146 12.2616 8.6211Z" fill="#229A87"/>
<path fill-rule="evenodd" clip-rule="evenodd" d="M79.9513 14.0605C79.9215 14.1282 79.8284 14.2393 79.8541 14.2961C80.1273 14.8928 79.9607 15.4827 79.8429 16.0712C79.746 16.5559 79.6711 17.0636 79.3825 17.472C78.8477 18.2282 78.5174 19.1599 77.6147 19.6133C77.5888 20.0949 76.8944 20.0222 76.8724 20.5074C76.3699 20.7511 76.0657 21.228 75.6379 21.5592C75.3691 21.7672 75.1079 21.9823 74.8547 22.2093C74.7575 22.2965 74.5951 22.3109 74.4176 22.375C74.3622 22.4884 74.2798 22.656 74.1764 22.8674C73.9865 22.9881 73.75 23.1382 73.4784 23.3109C73.4712 23.4396 73.4617 23.6097 73.452 23.7913C73.3645 23.8231 73.2768 23.8551 73.189 23.8872C73.0439 24.1805 73.3534 24.1014 73.4458 24.2C73.264 24.596 72.94 24.8473 72.5587 25.0698C72.3156 24.884 72.0688 24.696 71.7983 24.4891L71.7983 23.4721C71.6939 23.3624 71.5905 23.2541 71.4822 23.1401C71.5451 22.6594 71.3944 22.1664 71.6265 21.6815C71.7382 21.4486 71.7707 21.1726 71.9833 20.9974C72.1189 20.8857 72.0668 20.6191 72.3454 20.6052C72.4066 20.6021 72.4498 20.3161 72.5083 20.1629C72.6244 19.8584 72.8902 19.6654 73.0971 19.4376C73.5893 18.8944 74.0901 18.3477 74.6552 17.8853C75.2162 17.4271 75.7156 16.8862 76.3693 16.5394C76.5604 16.4381 76.7027 16.2464 76.8729 16.103C77.0378 15.9643 77.2102 15.8342 77.4255 15.6637C77.157 15.5479 76.8871 15.4317 76.578 15.2983C76.5398 15.4008 76.5094 15.4835 76.4774 15.5701C75.8159 15.5086 75.2368 15.1223 74.5519 14.9916L74.5519 14.6527C74.0344 14.4914 73.5433 14.3385 73.0523 14.1856C72.8489 14.1187 72.6604 14.4229 72.3977 14.1895C72.5036 14.1399 72.6047 14.0925 72.7058 14.0455C72.3423 14.1123 72.0303 13.4928 71.6432 14.0321C71.1635 13.4706 70.2903 13.7363 69.887 13.07C69.8475 13.1057 69.7945 13.1536 69.7224 13.219C69.3422 13.0748 68.9589 12.8764 68.5517 12.7898C68.1289 12.6993 67.9952 12.255 67.4844 12.1439C66.9814 12.2222 66.4104 12.079 65.926 11.6751C65.8544 11.4579 65.7887 11.2576 65.7182 11.044C65.7564 10.9799 65.8015 10.9039 65.8463 10.8278C65.7572 10.7381 65.6675 10.6487 65.5664 10.5476C65.7708 10.4448 65.9711 10.3443 66.1733 10.2426C66.0784 10.1479 65.9889 10.0585 65.8767 9.94627C66.0098 9.86828 66.138 9.79336 66.3051 9.69531C66.612 10.0677 67.0925 9.79475 67.515 9.98471C68.1089 10.2518 68.7991 10.2964 69.4372 10.4752C70.1825 10.6838 70.9156 10.937 71.6554 11.166C72.4426 11.4094 73.2278 11.6559 74.0316 11.8487C74.6909 12.0063 75.3073 12.3249 75.9805 12.4536C76.2075 12.7319 76.6181 12.4706 76.8453 12.7486C77.4169 12.6898 77.8862 13.0982 78.4469 13.1021C78.5586 13.1029 78.6681 13.1814 78.7823 13.2021C79.2937 13.2945 79.7736 13.4274 79.9513 14.0605Z" fill="#229A87"/>
</svg>
